<?xml version="1.0" encoding="UTF-8"?>
<svg version="1.1" viewBox="0 0 2000 2000" width="1280" height="1280" xmlns="http://www.w3.org/2000/svg">
<path transform="translate(0)" d="m0 0h2e3v2e3h-2e3z" fill="#282928"/>
<path transform="translate(1284,1044)" d="m0 0h26l19 3 21 7 17 9 12 9 14 12 11 13 10 15 7 15 5 16 3 14 1 9 1 28-1 52-3 18-5 17-7 15-7 12-9 11-9 10-11 10-10 7-14 8-21 8-19 4-13 1h-137v-110l4-1h151l-1-82-3-9-5-6-5-3-4-1h-8l-10 4-6 7-2 6v9l4 8 7 6 6 2 12 1h8l1 1v52h-119l-6-2-9-14-8-17-4-13-3-17v-26l4-20 5-15 8-16 7-11 9-11 9-10 11-9 10-7 10-6 15-6 17-5z" fill="#E8E4E1"/>
<path transform="translate(1011,1044)" d="m0 0h26l19 3 21 7 17 9 11 8 13 11 11 12 11 16 8 16 5 15 4 19 1 10v17l-3 20-6 20-8 16-9 14-12 14-12 11-17 12-17 8-15 5-20 4h-30l-20-4-17-6-16-8-13-9-12-11-9-9-10-13-9-16-6-15-4-15-3-21v-11l2-19 5-19 5-13 8-15 9-12 13-15 14-11 13-9 17-8 16-5z" fill="#E8E4E1"/>
<path transform="translate(1558,1044)" d="m0 0h25l16 2 17 5 16 7 12 7 13 10 12 11 13 16 9 15 8 20 4 16 2 14v21l-3 19-6 20-8 16-7 11-8 10-9 10-14 12-16 10-16 7-16 5-17 3h-29l-20-4-17-6-16-8-10-7-11-9-13-13-10-13-9-16-8-21-4-19-1-21 2-18 4-18 6-16 8-15 10-13 12-14 14-11 10-7 15-8 21-7z" fill="#E8E4E1"/>
<path transform="translate(425,707)" d="m0 0h16l19 2 15 4 16 8 10 8 8 9 6 10 4 14 1 16-2 13-5 12-7 8-66 1 6-8 1-2v-9l-4-6-5-3-9-1-8 3-3 1-2 5-1 3v8l4 7 5 3 4 1 13 1h79l1 1v72l3-3 12-19 13-21 14-23 12-19-2-5-11-20-14-24-16-28-7-12v-2h72l13 1 10 19 12 22 2-1 8-16 12-23 4-2h81v3l-14 24-15 26-21 36 2 5 11 18 15 24 14 22 12 19v3h-83l-8-11-16-26-15-24-3-3-2 1 10 16 3 5v5l-6 9-15 24-3 4h-179l-16-2-18-6-14-8-10-8-8-8-10-14-6-13-4-12-2-11v-23l4-18 7-16 7-11 10-11 13-10 16-8 14-4z" fill="#E8E4E1"/>
<path transform="translate(1017,707)" d="m0 0h18l16 3 16 8 9 7h4l10-8 12-6 12-3 7-1h16l19 3 15 5 14 8 11 9 8 10 8 14 5 16 2 9 1 13v89l-1 9h-78l-1-94-3-7-4-3h-9l-5 4-2 5-1 94-1 1h-75l-1-5-1-91-4-7-7-2-7 3-4 6-1 95-1 1h-77l-1-1v-107l3-15 6-16 6-11 11-12 9-8 15-8 17-5z" fill="#E8E4E1"/>
<path transform="translate(774,988)" d="m0 0h101l8 1 1 181-1 133-1 1h-109l-1-1v-314z" fill="#E8E4E1"/>
<path transform="translate(1314,707)" d="m0 0h14l18 3 16 6 12 7 9 7 7 6 11 14 8 16 5 15 2 16v9l-2 16-5 17-9 16-7 9-6 7-13 10-17 9-11 4-18 3-18 1-1-1v-80h15l8-4 4-8-1-9-4-6-6-3h-8l-7 4-4 7-1 15v123l-8 1h-70l-1-1v-142l2-14 5-15 9-17 13-15 15-12 16-8 13-4z" fill="#E8E4E1"/>
<path transform="translate(1593,707)" d="m0 0h17l19 2 15 4 16 8 10 8 8 9 8 16 3 15v10l-2 12-4 10-6 8-3 2-65 1v-2l5-4 2-4v-9l-4-6-5-3-9-1-8 3-5 6-1 2v9l4 7 5 3 4 1 24 1h69v76l-2 1h-92l-17-2-18-6-11-6-12-9-10-10-10-15-6-13-4-15-1-7v-20l3-16 5-14 6-11 10-13 11-10 15-9 17-6z" fill="#E8E4E1"/>
<path transform="translate(831,707)" d="m0 0h14l18 3 13 5 14 8 10 8 10 10 9 14 7 16 3 12 1 8v100l-1 1h-75l-1-1-1-95-3-6-4-4-3-1h-9l-5 3h-2l-2 4-1 3v8l3 6v2l5 2 3 1 14 1 1 1v51l-1 25h-10l-18-2-17-5-16-8-13-10-10-11-8-13-7-16-3-12-1-9v-13l2-14 6-18 8-14 9-11 8-8 13-9 15-7 16-4z" fill="#E8E4E1"/>
<path transform="translate(1496,667)" d="m0 0 4 1v223l-1 1h-77l-1-1v-223z" fill="#E8E4E1"/>
<path transform="translate(1294,1154)" d="m0 0h8l7 3 7 6 3 6 1 5v82l-103 1h-48l-2-2 4-1h10l1-9-3-6v-4h-2l-5-12 1-3 12 22 5 7 5 1 119 1-1-52h-10l-13-2-6-3-7-8-2-5v-9l4-9 7-6z" fill="#1F1F1F"/>
<path transform="translate(769,994)" d="m0 0 2 3v303l-3-3-2-14-1-22-1-67v-136l1-8v-15l1-4-1-11 2-10v-9z" fill="#1C1C1D"/>
<path transform="translate(1317,786)" d="m0 0h8l6 3 4 5 2 5-1 9-5 7-7 3h-14v79l18-1 18-3 15-6 13-7 10-8 6-5 7-9h2l-1 4h-2l-1 5-4 4-3 1-1 3-3 1-2 3-2-1v2l-9 6-9 4-12 5-7 2-5 1v1l-12 2-4-1-8 4-5 2-1 18-1 5h-1l-1-21-1-4v-91l1-15 4-7 5-4z" fill="#1F2020"/>
<path transform="translate(1019,1155)" d="m0 0h10l7 3 6 5 4 7 1 4v7l-3 8-4 5-8 5-3 1h-10l-8-4-7-8-2-4v-13l3-6 5-5 6-4z" fill="#282928"/>
<path transform="translate(1567,1155)" d="m0 0h9l9 4 6 7 3 8v7l-4 9-4 5-10 5h-10l-8-4-5-5-4-8v-12l4-7 8-7z" fill="#282928"/>
<path transform="translate(1293,1158)" d="m0 0 7 1 8 4v2l5 2 4 8v12l-1 8-1 3v53h-1l-1-52h-10l-13-2-6-3-7-8-2-5v-9l2 1 4-7 5-3h2l1-3z" fill="#282928"/>
<path transform="translate(1405,1311)" d="m0 0h2l-2 4-6 9-9 8-4 4h-2v3l-3 1-1 3-4 2-1 2-6 1v2l-6 4-7 3-2 2-11 3-1 2-19 7-7 1-1 1-14 1-105-1h-22l-8-2v-2h-2v-2l138-1 18-2 17-4 20-8 15-9 10-8 10-9 9-10z" fill="#1E1E1E"/>
<path transform="translate(1184,722)" d="m0 0h4l2 3 3 2 8 7 4 6v2l3 1 9 20 5 5 6 3v-2l3 1-2 10-3 17-1 104-1 29-3-3-1-8v-14l-3-5-3-3h-7l-7-1-5 1h-29l-20-3v-1l72-1 1-9v-89l-2-19-5-16-7-14-6-8-3-3v-2l-4-2-8-7z" fill="#1C1C1D"/>
<path transform="translate(1417,681)" d="m0 0h2l1 10v199h-1v-9h-2v-25l-2-11-4-2-3 2v4l-7 7-1-2 8-15 5-17 2-16v-9l-2-16-5-15-8-16-9-11-5-6-8-6 1-3 4 2v2l5 2 5 5v3l4 2 4 5 3 5 2 5h2l2 2 6 5v-74z" fill="#1C1D1D"/>
<path transform="translate(1501,683)" d="m0 0 2 4v61l4 4 1 3 4 4v3l3-4-1 6-5 17-1 8v20l3 15 5 14 6 11 9 12 9 9 15 10 14 6 15 4v2l-11-1-8-3-7-3-9-3-6-3-5-5-8-6-5-5-4-8-2-2-2-5-3-6-2-5-1-2-8 3-1 11h-1z" fill="#1C1C1D"/>
<path transform="translate(884 1e3)" d="m0 0h1l1 7-1 2 2 1v45l-1 4v18l1 44 2 7h2v2h2l2 4h1l-1 10-3 16-1 12v11l3 21 5 18v5l-2 1v-6l-9-1-2 8-1 9h-1v-39l-1-37z" fill="#1C1C1D"/>
<path transform="translate(901,1233)" d="m0 0h2l8 15 9 12 11 12 8 8 15 11 16 8 16 6 16 4 7 1h30l20-4 20-7 15-8 3-1-1 4-5 2-1 3-7 1-1 3-6 1-7 1v2l-10 3-5 2-15 4h-19l-8-2-6-1-17-3-9-3-12-2-12-6-3-2v-2l-3-1v-2l-3 1v-2l-5-1-8-7-10-8-3-3v-2h-2l-1-4-3-1-1-4h-2v-2l-2-1-1-5-3-5-5-11z" fill="#1D1D1E"/>
<path transform="translate(894,725)" d="m0 0h3l1 2 3 1v2h2v2h2v2h2v2h2v2l2 1 3 4 3 5v2l3 1 2 6 2 4 2 3 5 1 4 2h3 1l-1 10-1 7-1 108-3-4-2 4-1-98-5-23-7-16-7-11-9-10-8-7z" fill="#1E1E1F"/>
<path transform="translate(429,782)" d="m0 0 9 1 6 4 4 6v9l-4 6-3 3h-4v3h-13l-6-4-4-7v-8l4-8 7-4z" fill="#1C1D1D"/>
<path transform="translate(1598,782)" d="m0 0 9 1 6 4 4 6v9l-4 6-4 3h-4v3h-12l-6-4-4-7v-9l4-6 4-4z" fill="#1C1C1D"/>
<path transform="translate(833,784)" d="m0 0h9l5 3 5 6v21l-2 6-2-4-14-1-8-4-4-8v-8l4-7z" fill="#1C1C1D"/>
<path transform="translate(1317,786)" d="m0 0h8l6 3 4 5 2 5-1 9-5 7-4 2h-15l-2-4-3-7h-2v-8l4-7 5-4z" fill="#1C1C1D"/>
<path transform="translate(1124,787)" d="m0 0h9l6 5 1 2v96h-1l-2-10-1-9v-62l-2-3v-3h-2v-2l-6-1-6 1v3h-2l1 52 1 16v9l-1 3h-2v-90l5-6z" fill="#1C1C1D"/>
<path transform="translate(1155,1145)" d="m0 0 5 5 4 3v4l2-8h1l-1 13v26l3 17 2 8v5l-4-6-2-1v-4l-7-1-5 14h-1l1-10 3-15 1-8v-17l-2-16z" fill="#1E1E1F"/>
<path transform="translate(539,740)" d="m0 0h2l13 23 14 24 8 14-2 5-16 26-4 4 1-7 2-2 1-4 3-5 2-8 3-10-2-8-8-15-3-5v-2l-2-1-2-5-2-3-1-7-3-1v-2-4l-3-1z" fill="#1E1E1E"/>
<path transform="translate(772,1305)" d="m0 0h106l-1 2-4 2-36 2-4-1-3 1-8-1-5 1h-22l-16-2-7-3z" fill="#1C1C1D"/>
<path transform="translate(338,817)" d="m0 0 3 4 6 17 6 11 10 13 8 8 10 7 16 8 9 3v2l3 1-9-1-9-3h-3v-2l-7-1-5-3v-2l-5-2-4-2v-2l-4-2-5-4-7-9v-3l-2-1-2-3v-4l-4-2-5-17-1-5z" fill="#1D1D1E"/>
<path transform="translate(1683,1252)" d="m0 0v3l-3 6h-2v2h-2l-1 4-3 1v3l-4 1v3l-4 1v3l-3 1-3 4-5 4-7 4h-2l-1 3-16 8-3 1-2-1-1 2h-4v2l-7 2-8 3-7 1-8 3h-18l-14-3v-1l37-1v-2l21-5 19-8 12-7 13-10 13-12 11-14z" fill="#202020"/>
<path transform="translate(1447,1233)" d="m0 0h3l8 15 9 12 11 12 7 7 13 10 16 9 15 6-1 2-6-1-12-4-7-2v-2h-2v-2l-5-1-3-1v-2l-5-2-3-5-6-3-5-5-7-6v-2h-2l-6-9-8-16v-4h-2z" fill="#1E1E1E"/>
<path transform="translate(1019,1155)" d="m0 0h10l7 3 6 5 4 7 1 4v7l-3 8-4 5-8 5-3 1h-10l-8-4v-2h4l1 2 7 1 6-2 4-2 4-4h2l2-5 2-2-2-7-6-10-9-5h-11l-2 4-3 1-2 6h-3l-2 3v-6l5-7 8-5z" fill="#1E1E1F"/>
<path transform="translate(1033,1041)" d="m0 0 17 3 11 2 9 3 6 3-4 1-20-6-15-2h-26l-19 3-21 7-17 9-13 10-12 10-9 11-4 5-3-1 2-4 4-5 2-3h2l2-4 5-4 2-3 5-3 4-3h2l1-3h3l1-3 7-4 8-5 13-5 16-5 20-3z" fill="#202021"/>
<path transform="translate(372,723)" d="m0 0 2 1v2l-11 9-10 13-8 16-4 12-2 11-1 28h-2l-3-7 1-13h2l-2-7 1-11 3-2v-7l4-9 2-4v-4h2l1-4h2l1-6 5-4 4-3 5-5 5-4z" fill="#1F1F1F"/>
<path transform="translate(1095,1290)" d="m0 0h2l-1 4-5 2-1 3-7 1-1 3-6 1-7 1v2l-10 3-5 2-15 4h-19l-8-2-6-1-17-3-2-3 10 1 12 2h30l20-4 20-7 15-8z" fill="#1E1E1F"/>
<path transform="translate(1567,1155)" d="m0 0h9l9 4 6 7 3 8v7l-4 9-4 5-10 5h-10l-3-1v-2h8l7-1 4-3 2-4 4-6v-9l-3-6-9-7-7-1h-6v2l-7 3-4 4 1-5 8-7z" fill="#1E1E1F"/>
<path transform="translate(1161,1269)" d="m0 0h3v98h-1l-1-6h-2l-1-24v-21l1-41z" fill="#1C1C1D"/>
<path transform="translate(616,827)" d="m0 0 4 2 7 10 13 21 15 24 1 5-1-2-4-2-2-5h-2l-1-4-3-1-4-4-1-4-8-5-3-1-2 4h-1v-5l4-5-1-7-7-11-5-9z" fill="#1E1F1F"/>
<path transform="translate(437,811)" d="m0 0h69l1 3h5v1l-15 1h-56l-13-1v-1h9z" fill="#292A29"/>
<path transform="translate(748,826)" d="m0 0 2 1 7 16 6 10 11 13 14 11 15 7 12 4v3l-10-2-12-5-10-5v-2l-5-2-4-3v-2l-5-2-3-2v-2l-3-1-4-6-2-6-2-2-2-6-3-6z" fill="#1D1E1E"/>
<path transform="translate(1514,836)" d="m0 0 3 4 7 12 8 10 8 8 15 10 14 6 15 4v2l-11-1-8-3-7-3-9-3-6-3-5-5-8-6-5-5-4-8-2-2-2-5-5-10z" fill="#1E1E1E"/>
<path transform="translate(1306,804)" d="m0 0 4 5 2 5 2 2 10 1v1h-14l-1 50-3 1v34l-2 1v-91z" fill="#282928"/>
<path transform="translate(1435,1167)" d="m0 0h1l1 12 1 3 2 18 3 14v6l-3-4-2-3-4-2-2-13-1-30z" fill="#1D1D1E"/>
<path transform="translate(1027,786)" d="m0 0 7 2 5 8v11l-6-2-3-5-7-1-5 3v-2h-2v-6l5-6z" fill="#1C1D1D"/>
<path transform="translate(692,794)" d="m0 0h2l1 3v7h-2v4l3 1 1 5 3 1 1 5h2l3 6 7 11v3l3 1 1 5 3 1 3 6v2l2 1 2 3v3h2v3h2l4 8 3 5 2 2 3 5-1 3-7-10-24-38-13-21-10-16 2-5z" fill="#202021"/>
<path transform="translate(1585,892)" d="m0 0 101 1-4 2-8 1-18 1-47-1-4-1h-8l-12-2z" fill="#1C1C1D"/>
<path transform="translate(1632,1057)" d="m0 0 5 1v2l7 2 1 3 5 1 3 2v2l4 1 5 5 7 6 7 8 1 4 3 1 8 11 7 14 1 5-3-1-8-16-9-12-11-13-10-9-14-10-9-5z" fill="#1F1F20"/>
<path transform="translate(1646,713)" d="m0 0 7 1v2l6 1 2 4 5 1v2h3v2l4 2v2l4 2 4 5 7 14 3 20 1 2v7l-1 1-2 9h-1v-21l-3-15-8-16-10-11-14-9-7-4z" fill="#1F2020"/>
<path transform="translate(615,720)" d="m0 0 2 1v3h2l4 8 1 3 6 1 9 3 1 4-6 11h-3l-13-24-3-6z" fill="#1D1E1E"/>
<path transform="translate(1092,1061)" d="m0 0 5 1 1 2 8 4 3 2v3l4 1 5 6 7 6 7 8 1 4 3 1 5 8v3l3 1 2 6 2 1 3 9v4h-2l-8-18-8-12-8-10-11-12-14-11-8-5z" fill="#202020"/>
<path transform="translate(1016,823)" d="m0 0 2 3 1 4 1 22v14l1 9-2 7h-3z" fill="#1C1C1D"/>
<path transform="translate(1040,893)" d="m0 0h63l-3 2-7 2h-39l-6-2-8-1z" fill="#1C1C1D"/>
<path transform="translate(1683,1252)" d="m0 0v3l-3 6h-2v2h-2l-1 4-3 1v3l-4 1v3l-4 1v3l-3 1-3 4-5 4-7 4h-2l-1 3-7 2 3-5 12-8 15-13 9-10 6-8z" fill="#1E1E1F"/>
<path transform="translate(1591,705)" d="m0 0h19l18 2v1h-35l-19 3-17 6-15 9h-2v-2l4-3h3v-2l12-6 15-5z" fill="#202020"/>
<path transform="translate(1305,814)" d="m0 0h1l1 49h1l1 5 1 30-5 1z" fill="#1C1C1D"/>
<path transform="translate(950,893)" d="m0 0h53l-2 2-6 2h-32l-3-1-5 1-5-1z" fill="#1C1C1D"/>
<path transform="translate(963,1055)" d="m0 0m-2 1h2v3l-12 7-16 13-6 5-9 11-4 5-3-1 2-4 4-5 2-3h2l2-4 5-4 2-3 5-3 4-3h2l1-3h3l1-3 7-4z" fill="#1F1F20"/>
<path transform="translate(1217,1068)" d="m0 0 3 1-11 10-8 7-11 14-3 2v-5l4-1-2-4 4-5h2l1-4h3l2-4 2 1 1-5h3v-2l4 1v-3l5-2z" fill="#1D1D1E"/>
<path transform="translate(1138,1247)" d="m0 0 2 1-4 8-3 3-1 4-4 1-1 4h-2l-2 4-5 5h-2v2l-4 1-1 4h-2l-2 4-3 1-1 2h-5l4-6 9-7 12-11 11-14z" fill="#1E1E1F"/>
<path transform="translate(1338,1049)" d="m0 0 9 1v2l10 2v3l7 1 1 3 5 2 7 4v2l4 1v2l5 2 3 3 2 1v3l4 2v2l-4-2-14-12-15-10-17-8-7-3z" fill="#1F1F20"/>
<path transform="translate(1229,938)" d="m0 0h66v1l-34 3-29-2z" fill="#1C1C1D"/>
<path transform="translate(1438,1156)" d="m0 0h1l-1 18-1 5h-1l-1-10h-3v25h-1l-1-5-1-32 3 3 6-2z" fill="#292A29"/>
<path transform="translate(1307,897)" d="m0 0 17 1-2 2-8 4-5 2-1 18-1 5h-1l-1-30h2z" fill="#1C1C1D"/>
<path transform="translate(829,705)" d="m0 0h14l15 2 13 4 10 3v3l6 1v2l-5-1-13-6-16-4-8-1h-27v-1z" fill="#202020"/>
<path transform="translate(1038,824)" d="m0 0h1v58l-2-4-1-1-1-19v-6l1-7 1-1z" fill="#1C1C1D"/>
<path transform="translate(422,705)" d="m0 0h18l15 1 4 2h-34l-16 2-11 3h-5l1-2 16-4z" fill="#1F1F20"/>
<path transform="translate(1592,1310)" d="m0 0h5v2l-10 4h-18l-14-3v-1l31-1z" fill="#1C1C1D"/>
<path transform="translate(884,1240)" d="m0 0h1l2 30v24h-2l-1 2z" fill="#1C1C1D"/>
<path transform="translate(1682,803)" d="m0 0 1 4-3 6h8v1l-20 1h-18l-1-2 2-1h23v-2l5-4z" fill="#1C1C1D"/>
<path transform="translate(415,892)" d="m0 0 54 1 14 1v1l-32 1h-13l-10-1-13-2z" fill="#1C1C1D"/>
<path transform="translate(1425,893)" d="m0 0h62v1l-7 1-29 1-23-1z" fill="#1C1C1D"/>
<path transform="translate(1271,1044)" d="m0 0h6l-1 2-17 4-16 6-12 6-6 4-3-1h2v-2l10-6 18-8z" fill="#202021"/>
<path transform="translate(1312,705)" d="m0 0h14l12 1 3 2h-27l-19 3-6 2h-5l2-2 18-5z" fill="#1F1F1F"/>
<path transform="translate(894,725)" d="m0 0h3l1 2 3 1v2h2v2h2v2h2v2h2v2l2 1 3 4 3 5v2l3 1 2 6 2 4v5l-2-3-8-15-8-10-9-9-3-2z" fill="#1F2020"/>
<path transform="translate(1184,722)" d="m0 0h4l2 3 3 2 8 7 4 6v2l3 1 8 18v3h-2l-7-16-7-10-4-4v-2l-4-2-8-7z" fill="#202021"/>
<path transform="translate(1528,1305)" d="m0 0 8 1 20 4h36v1l-6 1h-38l-14-3-6-2z" fill="#232424"/>
<path transform="translate(1676,1094)" d="m0 0 4 1 8 11 7 14 1 5-3-1-8-16-9-12z" fill="#202020"/>
<path transform="translate(536,863)" d="m0 0 1 3-12 19-3 1v-3h2l-1-4 1-4 1-2h2l1-3 5-2z" fill="#1E1E1F"/>
<path transform="translate(1405,1311)" d="m0 0h2l-2 4-6 9-9 8-4 4-2-1 7-8 10-11z" fill="#1F1F20"/>
<path transform="translate(1428,1148)" d="m0 0 3 1 3 3h5l-1 6-4 2-2 2h-2v-5h-2z" fill="#1C1C1D"/>
<path transform="translate(1308,871)" d="m0 0h1l1 27-4 1v-27z" fill="#292A29"/>
<path transform="translate(492,721)" d="m0 0 5 1v2l4 2 1 2 4 2 3 3v3h2l5 10h-3l-8-12-7-7-6-4z" fill="#1F2020"/>
<path transform="translate(1068,718)" d="m0 0h5v2l7-1h4 2l-1 3-6 5-4-2-7-6z" fill="#1E1E1F"/>
<path transform="translate(336,794)" d="m0 0h1l1 21h-2l-3-7 1-13z" fill="#1C1C1D"/>
<path transform="translate(1335,895)" d="m0 0h7l-1 2-3 2-12 2-2-2-10-1v-1z" fill="#212121"/>
<path transform="translate(879,893)" d="m0 0h32l-1 2-11 1-4 1-4-2-5 2v-3h-7z" fill="#1C1C1D"/>
<path transform="translate(1396,1086)" d="m0 0 5 4 7 8 4 7 1 4h-2l-9-13-6-7z" fill="#202021"/>
<path transform="translate(1706,1170)" d="m0 0 2 4v16l-2 6-2 4v-12h2z" fill="#1D1D1E"/>
<path transform="translate(1304,706)" d="m0 0 10 1v1l-19 3-6 2h-5l2-2z" fill="#1F2020"/>
<path transform="translate(1141,1110)" d="m0 0 3 1 2 6 2 1 3 9v4h-2l-8-18z" fill="#202021"/>
<path transform="translate(1359,713)" d="m0 0 6 1v3l3-1 5 3v2l4 1-1 2-5-2-12-7z" fill="#1E1E1F"/>
<path transform="translate(987,1307)" d="m0 0 10 1 12 2-3 2-12-1-6-2z" fill="#202021"/>
<path transform="translate(1092,1061)" d="m0 0 5 1 1 2 8 4 3 2 1 5-6-4-10-7-2-1z" fill="#1E1E1F"/>
<path transform="translate(1581,1194)" d="m0 0m-2 1h2v3l-5 2h-10l-3-1v-2h8l7-1z" fill="#202121"/>
<path transform="translate(913,744)" d="m0 0 4 4v2l3 1 2 6 2 4v5l-2-3-8-15z" fill="#212222"/>
<path transform="translate(1556,714)" d="m0 0h2l-2 4-11 6-5 2v-2l4-3h3v-2z" fill="#1F1F20"/>
<path transform="translate(743,794)" d="m0 0h1l1 9v10l-1-3-4-1 1-7h2z" fill="#1C1C1D"/>
<path transform="translate(1516,1053)" d="m0 0 3 1-18 10-3-1h2v-2z" fill="#202021"/>
<path transform="translate(1606,1306)" d="m0 0 3 1-2 1-1 3-8 1-6-2v-1z" fill="#212121"/>
<path transform="translate(1683,1252)" d="m0 0v3l-3 6h-2v2l-5 3-2 1 2-4 8-10z" fill="#212121"/>
<path transform="translate(748,826)" d="m0 0 2 1 6 14v2l-4-1-2-5z" fill="#202121"/>
<path transform="translate(372,723)" d="m0 0 2 1v2l-11 9-2-1v-2l6-5 2-2z" fill="#1F1F20"/>
<path transform="translate(1690,771)" d="m0 0 2 2v7l-1 1-2 9h-1v-11z" fill="#1D1E1E"/>
<path transform="translate(1095,1290)" d="m0 0h2l-1 4-5 2-1 3h-5l2-4z" fill="#1E1E1F"/>
<path transform="translate(1702,1203)" d="m0 0h2l1 6-1 4h-2l-1 5h-1v-7z" fill="#202020"/>
<path transform="translate(722,855)" d="m0 0 3 1 2 3v3h2v3h2l1 5h-2l-8-13z" fill="#1F1F20"/>
<path transform="translate(422,705)" d="m0 0h15v2l-19 1z" fill="#212121"/>
<path transform="translate(1068,1303)" d="m0 0 3 1h-2v3l-12 3v-2l-2-1z" fill="#202121"/>
<path transform="translate(1568,887)" d="m0 0 7 1 9 2v2l-11-1-5-2z" fill="#202121"/>
<path transform="translate(1172,1220)" d="m0 0 3 3 5 10v2h-3l-5-12z" fill="#202121"/>
<path transform="translate(1688,1111)" d="m0 0 3 1 5 11-1 2-3-3-4-8z" fill="#212121"/>
<path transform="translate(829,705)" d="m0 0h12v1l-10 2h-13v-1z" fill="#1E1E1F"/>
<path transform="translate(1138,1247)" d="m0 0 2 1-4 8-3 3-4 2 2-4z" fill="#202021"/>
<path transform="translate(1058,1046)" d="m0 0 4 1 11 3 3 3-7-1-11-4z" fill="#1F1F20"/>
<path transform="translate(388,714)" d="m0 0 3 1-13 8h-3l1-3z" fill="#1F2020"/>
<path transform="translate(1695,1230)" d="m0 0 1 2-6 12-2 1 1-5 4-9z" fill="#1F2020"/>
<path transform="translate(1613,1049)" d="m0 0h5l12 6-4 1-12-5z" fill="#1F1F20"/>
<path transform="translate(1352,891)" d="m0 0h5l-2 2-11 4-3-1v-2z" fill="#1F2020"/>
<path transform="translate(1080,1053)" d="m0 0 5 1v3h4l2 4-6-2-7-4z" fill="#1E1F1F"/>
<path transform="translate(1367,884)" d="m0 0 2 1-3 3-5 3h-7l3-2z" fill="#212222"/>
<path transform="translate(615,720)" d="m0 0 2 1v3h2l3 7-2 3-5-10z" fill="#212121"/>
<path transform="translate(1447,1233)" d="m0 0h3l5 11-4-1v-4h-2z" fill="#202121"/>
<path transform="translate(1414,1110)" d="m0 0 2 1 5 11v3h-2l-5-11z" fill="#212222"/>
<path transform="translate(963,1055)" d="m0 0m-2 1h2v3l-9 5-3-1z" fill="#1E1E1F"/>
<path transform="translate(1613,1304)" d="m0 0h4v3l-7 2-4 1 1-3h2v-2z" fill="#1E1E1F"/>
<path transform="translate(1405,845)" d="m0 0h2l1 4-7 7-1-2z" fill="#1F1F20"/>
<path transform="translate(1156,1206)" d="m0 0 1 2-4 12h-1l1-10 1-3z" fill="#202021"/>
<path transform="translate(971,1052)" d="m0 0h5l-2 2-9 4h-2l1-3z" fill="#212122"/>
<path transform="translate(1304,706)" d="m0 0 10 1v1l-15 1 1-2z" fill="#212122"/>
</svg>
